<svg width="100" height="125" xmlns="http://www.w3.org/2000/svg" xml:space="preserve" enable-background="new 0 0 100 100" version="1.1">

 <g>
  <title>Layer 1</title>
  <path stroke="null" id="svg_1" d="m1,96.19185l0,-0.34349l0,2.28996c0,0.68699 0.3,1.37397 1,2.06096l17.4,16.71668c1.8,1.71747 5.6,2.28996 8.5,1.14498l40.4,-16.25869c1.8,-0.68699 2.8,-1.94646 2.8,-3.20594l0,-1.94646c0,1.25948 -1,2.51895 -2.8,3.20594l-40.5,16.25869c-2.8,1.14498 -6.6,0.68699 -8.5,-1.14498l-17.3,-16.71668c-0.7,-0.57249 -1,-1.25948 -1,-2.06096m0,-4.23642l0,-1.03048l0,3.09144l0,0.57249c0,0.68699 0.3,1.37397 1,2.06096l17.4,16.71668c1.8,1.71747 5.6,2.28996 8.5,1.14498l40.4,-16.25869c1.8,-0.68699 2.8,-1.94646 2.8,-3.09144l0,1.37397l0,-4.00742c0,1.25948 -1,2.40445 -2.8,3.20594l-40.5,16.0297c-2.8,1.14498 -6.6,0.68699 -8.5,-1.14498l-17.3,-16.71668c-0.7,-0.57249 -1,-1.25948 -1,-1.94646m0,-4.35092l0,-1.71747l0,3.54943c0,0 0,0 0,0l0,0.80148c0,0.68699 0.3,1.37397 1,2.06096l17.4,16.71668c1.8,1.71747 5.6,2.28996 8.5,1.14498l40.4,-16.25869c1.8,-0.68699 2.8,-1.94646 2.8,-3.09144l0,0.57249l0,-3.20594c0,1.25948 -1,2.40445 -2.8,3.09144l-40.5,16.14419c-2.8,1.14498 -6.6,0.68699 -8.5,-1.14498l-17.3,-16.71668c-0.7,-0.57249 -1,-1.25948 -1,-1.94646m0,-4.35092l0,-2.40445l0,4.23642c0,0 0,0 0,0l0,0.80148c0,0.68699 0.3,1.37397 1,2.06096l17.4,16.71668c1.8,1.71747 5.6,2.28996 8.5,1.14498l40.4,-16.25869c1.8,-0.68699 2.8,-1.94646 2.8,-3.09144l0,-2.63345c0,1.25948 -1,2.40445 -2.8,3.09144l-40.5,16.14419c-2.8,1.14498 -6.6,0.68699 -8.5,-1.14498l-17.3,-16.71668c-0.7,-0.57249 -1,-1.25948 -1,-1.94646m18.2,14.42673l-17.3,-16.60219c-0.3,-0.34349 -0.6,-0.68699 -0.9,-1.03048l0,0.68699c0,0 0,0 0,0l0,0.80148c0,0.68699 0.3,1.37397 1,2.06096l17.4,16.71668c1.8,1.71747 5.6,2.28996 8.5,1.14498l40.4,-16.25869c1.8,-0.68699 2.7,-1.94646 2.8,-3.09144l0,-1.71747c-0.7,1.03048 -1.7,1.94646 -3,2.51895l-40.5,16.14419c-1,0.34349 -2,0.57249 -3.1,0.57249c-2.1,0 -4,-0.68699 -5.3,-1.94646m73.9,-34.00586c0,1.71747 -1.6,2.86245 -2.9,2.17546l-5.1,-2.63345c-0.3,-0.1145 -0.6,-0.229 -1,-0.229c-0.1,0 -7.3,-0.229 -15.4,-1.03048c-1.2,-0.1145 -2.1,-1.48847 -1.8,-2.86245l2.4,-12.59476c0.2,-0.80148 -0.1,-1.71747 -0.7,-2.28996l-0.2,-0.229c-1,-1.03048 -2.3,-2.17546 -3.7,-2.17546c-0.8,0 -1.5,0.34349 -2.1,0.91598c-3.4,3.43494 -5.6,4.12192 -6.8,4.12192c-0.5,0 -0.9,-0.1145 -1.2,-0.34349l7.4,-10.87729c0.3,-0.34349 0.6,-0.68699 1,-0.80148l5.2,-1.83197c0.4,-0.1145 0.7,-0.1145 1.1,0l13.7,4.12192c0.1,0 0.2,0.1145 0.3,0.1145l8.6,4.46542c0.7,0.34349 1.2,1.25948 1.2,2.17546l0,19.80813zm-24.3,-42.82219l-1.4,5.4959c-0.2,0.80148 -0.7,1.37397 -1.4,1.60297l-6,2.06096c-0.4,0.1145 -0.8,0.45799 -1,0.80148l-10,14.54122c-0.5,0.68699 -0.6,1.71747 -0.2,2.51895l0.1,0.229c0.7,1.71747 3,4.46542 6.8,4.46542c1.3,0 2.7,-0.34349 4.1,-1.03048c1.5,-0.68699 3.1,0.80148 2.8,2.74795l-3,16.25869c-0.1,0.68699 -0.3,1.03048 -1.1,1.03048c-0.1,0 -0.3,0 -0.3,0l-29.1,-7.09887c-0.4,-0.1145 -1.1,-0.229 -0.9,-1.48847l9.3,-49.69206c0.1,-0.68699 0.3,-1.03048 1.1,-1.03048c0.1,0 0.3,0 0.3,0l29.1,7.09887c0.3,0.1145 0.9,0.229 0.8,1.48847m29.3,51.06603l0,-29.76944c0,-2.06096 -1,-3.89293 -2.7,-4.80891l-10.2,-5.3814c-0.3,-0.1145 -0.5,-0.229 -0.8,-0.34349l-10.2,-2.97694c-1.1,-0.34349 -1.8,-1.71747 -1.5,-2.97694l0.9,-3.32044l0.1,-0.229c0.1,-0.34349 0.5,-2.97694 -0.8,-5.3814c-0.6,-1.03048 -1.7,-2.40445 -3.9,-2.86245l-29.1,-7.09887c-0.1,0 -0.6,-0.1145 -1.3,-0.1145c-3,0 -5.3,2.06096 -6,5.4959l-9.3,49.69206c0,0.229 -0.4,2.40445 0.4,4.46542l-19.1,7.67135c-1.4,0.57249 -2.3,1.48847 -2.5,2.74795c-0.2,0.91598 0.2,1.94646 1,2.63345l17.4,16.71668c0.9,0.91598 2.5,1.37397 4,1.37397c0.9,0 1.7,-0.1145 2.5,-0.45799l40.4,-16.25869c1.4,-0.57249 2.3,-1.48847 2.5,-2.74795c0.2,-0.91598 -0.2,-1.94646 -1,-2.63345l-4.3,-4.12192l0.3,-1.83197c0.2,-1.14498 1.2,-1.94646 2.2,-1.83197c7,0.80148 13.5,1.03048 15.9,1.14498c0.3,0 0.5,0.1145 0.8,0.229l10.7,5.61039c0.3,0.229 0.7,0.229 1,0.229c0.5,0 0.9,-0.1145 1.3,-0.45799c0.9,-0.57249 1.3,-1.48847 1.3,-2.40445"/>
 </g>
</svg>