<?xml version="1.0" encoding="UTF-8"?>
<svg xmlns="http://www.w3.org/2000/svg" xmlns:xlink="http://www.w3.org/1999/xlink" width="100%" height="100%" viewBox="0 0 800 1200" version="1.1">
<g id="surface1">
<path style=" stroke:none;fill-rule:evenodd;fill:rgb(0%,0%,0%);fill-opacity:1;" d="M 106.667969 280 C 106.667969 257.910156 118.605469 240 133.332031 240 L 666.667969 240 C 681.390625 240 693.332031 257.910156 693.332031 280 L 693.332031 760 C 693.332031 782.089844 681.390625 800 666.667969 800 L 133.332031 800 C 118.605469 800 106.667969 782.089844 106.667969 760 Z M 106.667969 873.167969 C 75.59375 856.695312 53.332031 812.246094 53.332031 760 L 53.332031 280 C 53.332031 213.726562 89.152344 160 133.332031 160 L 666.667969 160 C 710.847656 160 746.667969 213.726562 746.667969 280 L 746.667969 760 C 746.667969 812.246094 724.40625 856.695312 693.332031 873.167969 L 693.332031 920 C 693.332031 986.273438 657.515625 1040 613.332031 1040 L 186.667969 1040 C 142.484375 1040 106.667969 986.273438 106.667969 920 Z M 640 880 L 640 920 C 640 942.089844 628.058594 960 613.332031 960 L 186.667969 960 C 171.9375 960 160 942.089844 160 920 L 160 880 Z M 266.667969 520 C 266.667969 497.910156 278.605469 480 293.332031 480 L 373.332031 480 L 373.332031 360 C 373.332031 337.910156 385.273438 320 400 320 C 414.726562 320 426.667969 337.910156 426.667969 360 L 426.667969 480 L 506.667969 480 C 521.394531 480 533.332031 497.910156 533.332031 520 C 533.332031 542.089844 521.394531 560 506.667969 560 L 426.667969 560 L 426.667969 680 C 426.667969 702.089844 414.726562 720 400 720 C 385.273438 720 373.332031 702.089844 373.332031 680 L 373.332031 560 L 293.332031 560 C 278.605469 560 266.667969 542.089844 266.667969 520 Z M 266.667969 520 "/>
</g>
</svg>
