<?xml version="1.0" encoding="UTF-8"?>
<svg xmlns="http://www.w3.org/2000/svg" xmlns:xlink="http://www.w3.org/1999/xlink" width="100%" height="100%" viewBox="0 0 196 270" version="1.1">
<g id="surface1">
<path style=" stroke:none;fill-rule:nonzero;fill:rgb(0%,0%,0%);fill-opacity:1;" d="M 192.703125 91.289062 C 193.113281 87.226562 192.289062 82.792969 190.023438 79.835938 L 141.382812 6.683594 C 138.703125 2.617188 134.582031 0.402344 130.253906 0.402344 C 127.78125 0.402344 125.515625 1.140625 123.246094 2.246094 L 10.097656 73.558594 C 6.183594 76.140625 3.710938 80.207031 3.296875 85.378906 C 2.886719 89.445312 3.914062 93.878906 5.976562 96.835938 L 54.617188 169.988281 C 57.296875 174.054688 61.417969 176.269531 65.746094 176.269531 C 68.21875 176.269531 70.484375 175.53125 72.753906 174.425781 L 185.902344 103.484375 C 189.609375 100.898438 192.289062 96.464844 192.703125 91.289062 M 196 108.65625 L 196 101.265625 C 194.144531 106.070312 191.464844 109.765625 187.757812 112.351562 L 74.609375 183.660156 C 71.929688 185.503906 68.835938 186.246094 65.746094 186.246094 C 59.976562 186.246094 54.617188 183.289062 51.113281 177.746094 L 2.472656 104.59375 C 1.441406 103.113281 0.617188 101.636719 0 99.789062 L 0 106.4375 C 0 109.394531 0.824219 112.722656 2.679688 115.304688 L 51.320312 188.460938 C 56.472656 196.222656 66.980469 198.4375 75.019531 193.265625 L 188.167969 122.328125 C 193.113281 119.371094 195.792969 114.199219 196 108.65625 M 196 127.871094 L 196 116.417969 C 195.792969 121.585938 193.113281 127.128906 188.167969 130.085938 L 75.019531 201.023438 C 66.980469 206.199219 56.472656 203.980469 51.320312 196.222656 L 2.886719 123.0625 C 1.03125 120.109375 0.207031 117.15625 0.207031 114.199219 L 0.207031 103.484375 L 0.207031 125.652344 C 0.207031 128.609375 1.03125 131.933594 2.886719 134.519531 L 51.523438 207.675781 C 56.675781 215.433594 67.1875 217.652344 75.226562 212.476562 L 188.375 141.539062 C 193.113281 138.582031 196 133.042969 196 127.871094 M 196 146.714844 L 196 149.296875 L 196 134.886719 C 196 140.429688 193.113281 145.601562 188.167969 148.558594 L 75.019531 220.234375 C 66.980469 225.410156 56.472656 223.191406 51.320312 215.433594 L 2.886719 142.277344 C 1.03125 139.324219 0.207031 136.367188 0.207031 133.410156 L 0.207031 125.652344 L 0.207031 144.863281 C 0.207031 147.820312 1.03125 151.148438 2.886719 153.730469 L 51.523438 226.886719 C 56.675781 234.648438 67.1875 236.867188 75.226562 231.691406 L 188.375 160.75 C 193.320312 157.425781 196 152.253906 196 146.714844 M 196 165.921875 L 196 171.835938 L 196 154.101562 C 196 159.644531 193.113281 164.816406 188.167969 168.140625 L 75.019531 239.078125 C 66.980469 244.253906 56.472656 242.035156 51.320312 234.277344 L 2.886719 161.121094 C 1.03125 158.539062 0.207031 155.210938 0.207031 152.253906 L 0.207031 147.820312 L 0.207031 163.707031 C 0.207031 166.664062 1.03125 169.988281 2.886719 172.574219 L 51.523438 245.730469 C 56.675781 253.492188 67.1875 255.707031 75.226562 250.535156 L 188.167969 179.59375 C 193.320312 176.640625 196 171.46875 196 165.921875 M 196 181.8125 L 196 173.3125 C 196 178.859375 193.320312 184.027344 188.167969 187.355469 L 75.019531 258.292969 C 66.980469 263.464844 56.472656 261.25 51.320312 253.492188 L 2.886719 180.335938 C 1.03125 177.378906 0.207031 174.425781 0.207031 171.46875 L 0.207031 169.988281 L 0.207031 179.964844 C 0.207031 182.921875 1.03125 186.246094 2.886719 188.832031 L 51.523438 261.988281 C 56.675781 269.746094 67.1875 271.964844 75.226562 266.789062 L 188.375 195.851562 C 193.320312 192.527344 196 186.984375 196 181.8125 "/>
</g>
</svg>
