<svg xmlns="http://www.w3.org/2000/svg" version="1.0" preserveAspectRatio="xMidYMid meet" viewBox="107 0.96 296.99 511.04">

<g transform="translate(0.000000,512.000000) scale(0.100000,-0.100000)" fill="#000000" stroke="none">
<path d="M2449 4870 c-79 -137 -148 -249 -152 -250 -5 0 -137 75 -293 166 -185 108 -289 163 -295 157 -13 -13 -269 -454 -269 -463 0 -7 2288 -1342 2322 -1355 22 -9 296 463 277 476 -8 5 -120 71 -249 146 -129 75 -247 144 -261 152 l-27 16 144 245 c79 135 143 250 143 255 1 7 -1007 601 -1174 692 -22 12 -27 4 -166 -237z m616 -350 c190 -111 344 -205 341 -208 -28 -51 -148 -252 -150 -252 -8 0 -682 394 -695 405 -11 11 -2 34 59 140 48 84 77 125 86 121 7 -3 168 -96 359 -206z"/>
<path d="M1070 1515 l0 -1515 1350 0 1350 0 0 1515 0 1515 -1350 0 -1350 0 0 -1515z m715 0 l0 -1100 -70 0 -70 0 -3 1090 c-1 600 0 1096 3 1103 3 9 24 12 72 10 l68 -3 0 -1100z m705 0 l0 -1105 -70 0 -70 0 0 1105 0 1105 70 0 70 0 0 -1105z m705 0 l0 -1100 -67 -3 -68 -3 0 1106 0 1106 68 -3 67 -3 0 -1100z"/>
</g>
</svg>